PathFileType	4	(X/Y/Z)	1_Data\scaling.trc
DataRate	CameraRate	NumFrames	NumMarkers	Units	OrigDataRate	OrigDataStartFrame	OrigNumFrames
120.000000	120.000000	4	71	mm	120.000000	609	697
Frame#	Time	Sternum			Neck			RShoulder			LShoulder			Xiphoid			Thoracic			RAsis			LAsis			RPsis			LPsis			RElbow			RElbowMedial			RShoulderAnterior			RShoulderPosterior			RWrist			RRadius			RUlna			LElbow			LElbowMedial			LShoulderAnterior			LShoulderPosterior			LWrist			LUlna			LRadius			LThighSuperior			LThighInferior			LThighLateral			LKneeLateral			LKneeMedial			LPatella			LShankSuperior			LShankInferior			LShankLateral			LAnkleLateral			LAnkleMedial			RThighSuperior			RThighInferior			RThighLateral			RKneeLateral			RPatella			RShankSuperior			RShankInferior			RShankLateral			RAnkleLateral			RankleMedial			RHeel			RToe			RMidfootMedial			RMidfootLateral			RHindfoot			RMidfootSuperior			RToeMedial			RToeLateral			LHeel			LToe			LMidfootMedial			LMidfootLateral			LHindfoot			LMidfootSuperior			LToeMedial			LToeLateral			RKneeMedial			Lumbar			Oglobal			Sacral			Xglobal			Yglobal			Zglobal			*68			*69			*70			
		X1	Y1	Z1	X2	Y2	Z2	X3	Y3	Z3	X4	Y4	Z4	X5	Y5	Z5	X6	Y6	Z6	X7	Y7	Z7	X8	Y8	Z8	X9	Y9	Z9	X10	Y10	Z10	X11	Y11	Z11	X12	Y12	Z12	X13	Y13	Z13	X14	Y14	Z14	X15	Y15	Z15	X16	Y16	Z16	X17	Y17	Z17	X18	Y18	Z18	X19	Y19	Z19	X20	Y20	Z20	X21	Y21	Z21	X22	Y22	Z22	X23	Y23	Z23	X24	Y24	Z24	X25	Y25	Z25	X26	Y26	Z26	X27	Y27	Z27	X28	Y28	Z28	X29	Y29	Z29	X30	Y30	Z30	X31	Y31	Z31	X32	Y32	Z32	X33	Y33	Z33	X34	Y34	Z34	X35	Y35	Z35	X36	Y36	Z36	X37	Y37	Z37	X38	Y38	Z38	X39	Y39	Z39	X40	Y40	Z40	X41	Y41	Z41	X42	Y42	Z42	X43	Y43	Z43	X44	Y44	Z44	X45	Y45	Z45	X46	Y46	Z46	X47	Y47	Z47	X48	Y48	Z48	X49	Y49	Z49	X50	Y50	Z50	X51	Y51	Z51	X52	Y52	Z52	X53	Y53	Z53	X54	Y54	Z54	X55	Y55	Z55	X56	Y56	Z56	X57	Y57	Z57	X58	Y58	Z58	X59	Y59	Z59	X60	Y60	Z60	X61	Y61	Z61	X62	Y62	Z62	X63	Y63	Z63	X64	Y64	Z64	X65	Y65	Z65	X66	Y66	Z66	X67	Y67	Z67	X68	Y68	Z68	X69	Y69	Z69	X70	Y70	Z70	X71	Y71	Z71	

610	5.075	531.8985595703125	1455.296997070312	-467.0868835449218	378.8276977539062	1572.203125	-456.9267578124999	428.0896911621094	1555.02490234375	-302.0830688476561	404.6641540527344	1553.53857421875	-602.0529174804686	558.6036376953125	1301.958251953125	-457.6118164062499	289.7328491210938	1351.80517578125	-451.9501647949218	488.3207702636719	1039.330688476562	-323.9087829589843	500.9210205078125	1044.44482421875	-605.0742797851561	302.3520812988281	1066.81640625	-413.7092895507812	300.8570861816406	1066.123046875	-516.0747680664061	521.5319213867188	1301.000244140625	-99.94170379638663	552.6414184570312	1243.098510742188	-172.6825103759765	482.8920593261719	1498.435180664062	-311.1570739746093	369.3362731933594	1502.4765625	-283.2913513183593	786.6843872070312	1341.029907226562	-96.17531585693351	800.3201904296875	1313.988525390625	-139.9962615966796	788.6744995117188	1315.03125	-58.67390060424797	528.2761840820312	1294.651489257812	-793.3356323242186	538.4769897460938	1237.1142578125	-720.6518554687499	466.84765625	1505.385375976562	-619.5078735351561	355.8706970214844	1494.712158203125	-632.4323730468749	796.2256469726562	1320.14013671875	-776.7503051757811	789.9160766601562	1284.070068359375	-807.4996948242186	803.0787353515625	1299.48974609375	-733.6491088867186	443.5289306640625	873.5272216796875	-659.2725219726562	470.3334350585938	642.8532104492188	-640.8436279296875	544.0941162109375	747.7303466796875	-587.7827758789062	475.2747497558594	557.951416015625	-643.3743896484375	470.1099853515625	564.1952514648438	-502.1852722167968	553.6588745117188	554.5159912109375	-578.2080688476562	466.38232421875	405.5827636718751	-661.4046020507812	429.9221801757812	204.8733367919922	-643.1492309570312	488.8997497558594	294.2073059082032	-602.4400634765625	410.7854309082031	124.3035430908204	-643.61181640625	439.7166137695312	125.1246643066407	-558.0001831054688	424.9681091308594	846.6387329101562	-287.3148498535156	440.4507751464844	610.4360961914062	-310.9254455566406	529.073974609375	764.5982666015625	-340.1535034179687	433.1532287597656	545.4375610351562	-309.8435668945312	526.6649169921875	540.2872924804688	-350.7489318847656	420.2796325683594	448.7620239257812	-304.1180419921875	413.8495483398438	194.3964385986328	-335.8638916015625	479.99365234375	318.7506408691406	-367.86279296875	405.0599060058594	119.9561309814453	-339.3406066894531	437.1454467773438	137.3125152587891	-425.7536926269531	332.1174926757812	79.511589050293	-394.4339904785156	646.325439453125	62.95290374755862	-351.671630859375	553.2007446289062	49.56414794921878	-414.4258422851562	541.2476196289062	43.47056961059572	-295.569580078125	486.63232421875	43.66322326660158	-309.8417358398438	514.54345703125	110.9545974731446	-364.3562316894531	598.0302124023438	50.29431152343752	-403.9762573242188	588.953857421875	48.48300933837893	-301.0528564453125	341.6456604003906	83.2933731079102	-590.9890747070312	648.8958129882812	74.19711303710942	-642.7080688476562	555.669677734375	50.786979675293	-578.5514526367188	541.9324340820312	47.16536712646489	-694.81884765625	487.9530944824219	46.546802520752	-680.061279296875	523.6480102539062	112.7314682006836	-625.60595703125	597.451171875	51.55392837524418	-586.8516235351562	586.2695922851562	56.96271133422856	-690.1500244140625	477.0363464355469	543.213623046875	-446.3105163574218	313.6139831542969	1168.614990234375	-460.5958251953124	0	0	0	301.6045837402344	1066.4697265625	-464.8920288085937	200	0	0	0	1.224646799147353e-14	-200	0	200	1.224646799147353e-14	nan	nan	nan	nan	nan	nan	nan	nan	nan	
611	5.083333333333333	531.9457397460938	1455.332885742188	-466.9749755859374	378.8157958984375	1572.22021484375	-456.8491210937499	428.1343688964844	1555.03076171875	-302.0488891601561	404.7300109863281	1553.55908203125	-602.0331420898436	558.64111328125	1302.006591796875	-457.5367431640624	289.7712707519531	1351.829345703125	-451.9604187011718	488.360107421875	1039.336669921875	-323.9239501953124	500.94287109375	1044.444580078125	-605.0762939453124	302.3787231445312	1066.8330078125	-413.7106018066406	300.9361572265625	1066.133666992188	-516.1329345703124	521.6022338867188	1301.003662109375	-99.93827056884757	552.7221069335938	1243.072509765625	-172.6747436523437	482.9294738769531	1498.442993164062	-311.1334228515624	369.36767578125	1502.482543945312	-283.2733764648436	786.7321166992188	1341.065551757812	-96.19334411621085	800.4086303710938	1314.12939453125	-139.9849395751952	788.7623291015625	1315.173950195312	-58.50204849243156	528.3805541992188	1294.677368164062	-793.3114013671874	538.5379028320312	1237.151977539062	-720.6188354492186	466.8018493652344	1505.401733398438	-619.4241943359374	355.9136352539062	1494.7734375	-632.3514404296874	796.286376953125	1320.17822265625	-776.7084350585936	789.9777221679688	1284.028076171875	-807.4132080078124	803.1251831054688	1299.464111328125	-733.6483764648436	443.5554809570312	873.5467529296875	-659.2911987304688	470.3515319824219	642.8482055664062	-640.869140625	544.1661987304688	747.7477416992188	-587.833984375	475.6139831542969	558.0213012695312	-643.5216064453125	470.2638854980469	564.1853637695312	-502.2516784667968	553.71044921875	554.54345703125	-578.2240600585938	466.4012451171875	405.5742492675782	-661.4231567382812	429.8751525878906	204.8434143066407	-643.1347045898438	488.9349670410156	294.1931762695313	-602.5101928710938	410.9361877441406	124.3902435302735	-643.6397094726562	439.7119445800781	125.1427612304688	-557.9990844726562	425.0033569335938	846.6534423828125	-287.3865966796874	440.4857788085938	610.4461059570312	-310.9614257812499	529.1347045898438	764.5967407226562	-340.2196655273437	433.1412963867188	545.4548950195312	-309.8390502929687	526.6798095703125	540.2700805664062	-350.7814941406249	420.2853088378906	448.7492980957031	-304.1291809082031	413.8420715332031	194.4104766845703	-335.8863525390625	479.9988098144531	318.753173828125	-367.8612365722656	405.0571594238281	119.9353790283203	-339.3436279296875	437.1205139160156	137.2843627929688	-425.748291015625	332.0564270019531	79.56372070312503	-394.6533203125	646.3443603515625	62.94353485107424	-351.6635437011719	553.1375122070312	49.51615524291995	-414.7332153320312	541.247802734375	43.57399368286135	-295.5267333984375	486.6276550292969	43.65837860107424	-309.808349609375	515.0624389648438	110.4732818603516	-365.2448120117188	598.02783203125	50.2764358520508	-403.9618530273438	588.9467163085938	48.50132751464846	-301.0277099609375	341.6658630371094	83.18029022216801	-590.9210815429688	648.922119140625	74.20845031738286	-642.74365234375	555.6616821289062	50.7705001831055	-578.5531616210938	541.9667358398438	47.17205047607426	-694.8200073242188	487.9901428222656	46.55149459838871	-680.0755004882812	523.655517578125	112.7412261962891	-625.5952758789062	597.4407348632812	51.56314468383793	-586.8613891601562	586.2930297851562	56.95471191406254	-690.1639404296875	477.0537109375	543.1980590820312	-446.3441467285156	313.6531066894531	1168.629760742188	-460.5956420898437	0	0	0	301.6574401855469	1066.4833984375	-464.9217529296874	200	0	0	0	1.224646799147353e-14	-200	0	200	1.224646799147353e-14	nan	nan	nan	nan	nan	nan	nan	nan	nan	
612	5.091666666666667	532.0113525390625	1455.329223632812	-466.9601440429686	378.8744812011719	1572.206298828125	-456.847442626953	428.1878356933594	1555.022583007812	-302.0239257812499	404.8029479980469	1553.558959960938	-601.9852905273436	558.5142211914062	1301.86865234375	-457.8011169433593	289.8045349121094	1351.8212890625	-451.9461364746093	488.4220275878906	1039.319702148438	-323.9837036132812	501.0236511230469	1044.472045898438	-605.1816406249999	302.4176330566406	1066.843505859375	-413.7300109863281	300.9391174316406	1066.142578125	-516.1307983398436	521.6087646484375	1300.970458984375	-100.019073486328	552.7705078125	1243.077880859375	-172.650177001953	482.9676208496094	1498.436645507812	-311.0846252441405	369.4233703613281	1502.46337890625	-283.2617187499999	786.7568969726562	1341.140502929688	-96.12486267089835	800.48828125	1314.147705078125	-139.9547271728515	788.7881469726562	1315.237670898438	-58.47012710571281	528.4502563476562	1294.673217773438	-793.2703857421874	538.5746459960938	1237.152587890625	-720.5971679687499	467.0044860839844	1505.382568359375	-619.4468994140624	356.0458068847656	1494.77294921875	-632.3159179687499	796.3736572265625	1320.1337890625	-776.6335449218749	790.0342407226562	1284.0322265625	-807.3809814453124	803.2045288085938	1299.461303710938	-733.5943603515624	443.6024475097656	873.523681640625	-659.3590087890625	470.4115905761719	642.86328125	-640.9069213867188	544.1656494140625	747.7351684570312	-587.8587036132812	475.6156311035156	557.93212890625	-643.683349609375	470.334228515625	563.9983520507812	-502.5401000976562	553.6785888671875	554.3936767578125	-578.4620971679688	466.4739074707031	405.5960693359376	-661.4851684570312	429.9647827148438	204.8621978759766	-643.1436767578125	488.9372863769531	294.1800842285157	-602.5213623046875	410.8883666992188	124.4539489746094	-643.5707397460938	439.7135925292969	125.143798828125	-557.9993286132812	425.0417785644531	846.6571655273438	-287.4045715332031	440.6337280273438	610.4615478515625	-310.9168701171874	529.153076171875	764.591064453125	-340.2476806640624	433.1641235351562	545.4793701171875	-309.8663940429687	526.6957397460938	540.2637329101562	-350.8098144531249	420.2766418457031	448.825927734375	-304.1339111328125	413.8582763671875	194.4060668945313	-335.8966369628906	479.9932250976562	318.7467041015625	-367.8693542480469	405.0583801269531	119.9470520019531	-339.3481140136719	437.1071166992188	137.2710266113282	-425.7448120117188	332.1012268066406	79.59767150878909	-394.4732360839844	646.3473510742188	62.96079254150393	-351.6177978515625	553.2473754882812	49.61240386962893	-414.4806518554688	541.2471923828125	43.57264328002932	-295.5166015625	486.6409606933594	43.6280212402344	-309.7954406738281	514.6058349609375	110.9238739013672	-364.4798889160156	598.0537109375	50.28430557250979	-403.97509765625	588.9537963867188	48.48295593261721	-301.0529479980469	341.6838073730469	83.17903137207036	-590.92333984375	648.9379272460938	74.16562652587895	-642.8482055664062	555.6693725585938	50.77887344360355	-578.5347290039062	541.9696655273438	47.17378616333012	-694.8219604492188	488.0081176757812	46.54138946533207	-680.06884765625	523.6757202148438	112.7438354492188	-625.5934448242188	597.4436645507812	51.57185363769535	-586.839599609375	586.3124389648438	56.93262481689457	-690.1795654296875	477.0721130371094	543.1935424804688	-446.3735351562499	313.7241821289062	1168.63427734375	-460.6693420410156	0	0	0	301.6783752441406	1066.493041992188	-464.9304199218749	200	0	0	0	1.224646799147353e-14	-200	0	200	1.224646799147353e-14	nan	nan	nan	nan	nan	nan	nan	nan	nan	
613	5.1	532.0941162109375	1455.300537109375	-466.9486083984374	378.9089965820312	1572.216186523438	-456.8259277343749	428.2461547851562	1555.009643554688	-301.9940490722655	404.8760375976562	1553.586181640625	-601.9517822265624	558.5138549804688	1301.840209960938	-457.8198852539062	289.87060546875	1351.815795898438	-451.9556579589843	488.4681396484375	1039.315673828125	-324.0013427734374	500.8213500976562	1044.463623046875	-604.9840698242186	302.4791870117188	1066.855346679688	-413.7419738769531	300.9629516601562	1066.171020507812	-516.1448974609374	521.6621704101562	1300.945068359375	-100.0269775390624	552.8226318359375	1243.078857421875	-172.6144561767577	483.0158081054688	1498.4375	-311.0839843749999	369.4727783203125	1502.442626953125	-283.2453308105468	786.7888793945312	1341.194458007812	-96.10681152343741	800.5505981445312	1314.210083007812	-139.9773712158202	788.8141479492188	1315.319213867188	-58.43778610229484	528.540771484375	1294.677368164062	-793.2432250976561	538.6175537109375	1237.229858398438	-720.5646362304686	467.0671997070312	1505.409912109375	-619.3923339843749	356.1285095214844	1494.746826171875	-632.3228149414061	796.4446411132812	1320.068237304688	-776.4831542968749	790.1246337890625	1284.00048828125	-807.3115234374999	803.2850341796875	1299.459228515625	-733.4570312499999	443.6965026855469	873.5767822265625	-659.4073486328125	470.577392578125	642.8466796875	-641.0087890625	544.2120361328125	747.7412719726562	-587.8778686523438	475.6516418457031	557.9463500976562	-643.7542114257812	470.4437866210938	563.9629516601562	-502.5994873046874	553.685791015625	554.3956298828125	-578.4710693359375	466.5147094726562	405.6201171875001	-661.5718994140625	430.0505065917969	204.8926086425782	-643.2015380859375	488.9593811035156	294.1767272949219	-602.5247802734375	410.8544311523438	124.3126602172852	-643.6639404296875	439.7364501953125	125.1148147583008	-558.0177612304688	425.0924377441406	846.6785278320312	-287.4107971191406	440.4947509765625	610.46240234375	-311.0134582519531	529.1805419921875	764.5851440429688	-340.3195495605468	433.1575317382812	545.48583984375	-309.8603210449218	526.6998291015625	540.2492065429688	-350.8260192871093	420.2963562011719	448.8001098632812	-304.1995239257812	413.8477783203125	194.4491424560547	-335.8144836425781	480.0181274414062	318.7587585449219	-367.8930358886719	405.0606079101562	119.9577026367188	-339.337158203125	437.1065368652344	137.2735290527344	-425.7432250976562	332.06201171875	79.59426879882815	-394.45263671875	646.340576171875	62.9298896789551	-351.6556701660156	552.6888427734375	49.16700363159183	-413.7423706054688	541.2066650390625	43.50858688354494	-295.5296325683594	486.6607055664062	43.59646224975588	-309.8240661621094	514.5274047851562	110.9468460083008	-364.32373046875	598.049072265625	50.26772689819338	-403.9525146484375	588.9407958984375	48.48045730590822	-301.0322265625	341.6509094238281	83.19298553466801	-590.9088745117188	648.9308471679688	74.14186096191411	-642.7474975585938	555.672607421875	50.76215362548832	-578.5258178710938	542.0031127929688	47.17712402343754	-694.8373413085938	488.2200622558594	46.58250427246098	-680.1531982421875	523.6765747070312	112.7418441772461	-625.5927124023438	597.4431762695312	51.57542037963871	-586.8340454101562	586.3379516601562	56.94977951049809	-690.1863403320312	477.07861328125	543.1808471679688	-446.3907470703124	313.67236328125	1168.660766601562	-460.4244079589843	0	0	0	301.7210693359375	1066.51318359375	-464.9434204101562	200	0	0	0	1.224646799147353e-14	-200	0	200	1.224646799147353e-14	nan	nan	nan	nan	nan	nan	nan	nan	nan	
